<svg version="1.2" baseProfile="tiny-ps" xmlns="http://www.w3.org/2000/svg" viewBox="0 0 64 65" width="64" height="65">
	<title>about</title>
	<style>
		tspan { white-space:pre }
		.shp0 { fill: #1b1b1b } 
	</style>
	<g id="about">
		<g id="iconboxes">
			<g id="iconbox">
				<g id="icon">
					<path id="Anchor" class="shp0" d="M32 64.19C18.76 64.19 7.62 54.29 6.08 41.16C5.95 40.06 6.73 39.07 7.83 38.94C8.92 38.8 9.92 39.59 10.05 40.69C11.35 51.81 20.79 60.19 32 60.19C43.19 60.19 52.63 51.82 53.95 40.73C54.08 39.63 55.07 38.84 56.17 38.98C57.27 39.11 58.06 40.1 57.92 41.2C56.36 54.31 45.22 64.19 32 64.19ZM32 63.68C30.89 63.68 30 62.79 30 61.68L30 16.56C30 15.45 30.89 14.56 32 14.56C33.1 14.56 34 15.45 34 16.56L34 61.68C34 62.79 33.1 63.68 32 63.68ZM32.03 3.94C34.27 3.94 36.09 5.76 36.09 8C36.09 10.24 34.27 12.06 32.03 12.06C29.79 12.06 27.97 10.24 27.97 8C27.97 5.76 29.79 3.94 32.03 3.94M32.03 -0.06C27.58 -0.06 23.97 3.55 23.97 8C23.97 12.45 27.58 16.06 32.03 16.06C36.48 16.06 40.09 12.45 40.09 8C40.09 3.55 36.48 -0.06 32.03 -0.06L32.03 -0.06ZM56.4 39.16L48.49 44.54C47.81 44.97 46.89 44.95 46.48 44.25L46.07 43.8C45.67 43.1 45.89 42.18 46.57 41.74L55.67 35.6C55.68 35.59 55.69 35.58 55.7 35.57L56.32 35.17C56.66 34.95 57.05 34.9 57.4 34.99C57.76 35.07 58.09 35.3 58.29 35.65L58.66 36.28C58.67 36.3 58.66 36.31 58.67 36.32L63.81 45.78C64.22 46.48 64 47.39 63.32 47.83L62.75 48.05C62.07 48.48 61.23 48.09 60.82 47.39L56.4 39.16ZM7.6 39.16L15.51 44.54C16.19 44.97 17.11 44.95 17.52 44.25L17.93 43.8C18.33 43.1 18.11 42.18 17.43 41.74L8.33 35.6C8.32 35.59 8.31 35.58 8.3 35.57L7.68 35.17C7.34 34.95 6.95 34.9 6.6 34.99C6.24 35.07 5.91 35.3 5.71 35.65L5.34 36.28C5.33 36.3 5.34 36.31 5.33 36.32L0.19 45.78C-0.22 46.48 0 47.39 0.68 47.83L1.25 48.05C1.93 48.48 2.77 48.09 3.18 47.39L7.6 39.16ZM22 16L42 16C43.1 16 44 16.89 44 18C44 19.1 43.1 20 42 20L22 20C20.9 20 20 19.1 20 18C20 16.89 20.9 16 22 16Z" />
				</g>
			</g>
		</g>
	</g>
</svg>