<svg version="1.2" baseProfile="tiny-ps" xmlns="http://www.w3.org/2000/svg" viewBox="0 0 65 64" width="65" height="64">
					<path id="Diamond" class="shp0" d="M51.75 3.98L60.06 19.88L31.94 58.17L4.27 19.59L12.57 3.98L51.75 3.98M52.17 -0.02L12.17 -0.02C11.07 -0.02 9.74 0.77 9.23 1.75L0.51 18.14C-0.01 19.11 0.09 20.63 0.73 21.53L30.74 63.35C31.06 63.8 31.49 64.03 31.91 64.03C32.34 64.03 32.76 63.81 33.09 63.36L63.58 21.85C64.23 20.96 64.35 19.44 63.84 18.47L55.09 1.75C54.58 0.78 53.27 -0.02 52.17 -0.02L52.17 -0.02ZM60.42 21.98L2.42 21.98L2.42 17.98L60.42 17.98L60.42 21.98ZM30.02 59.61L11.27 3.11L15.06 1.85L33.81 58.35L30.02 59.61ZM33.96 59.18L30.18 57.86L50.28 0.32L54.06 1.64L33.96 59.18ZM21.14 21.12L17.86 18.83L30.39 0.83C30.76 0.31 31.35 -0.01 31.98 -0.03C32.59 -0.02 33.22 0.24 33.61 0.75L47.08 18.08L43.92 20.54L32.12 5.35L21.14 21.12Z" />
</svg>
