<svg version="1.2" baseProfile="tiny-ps" xmlns="http://www.w3.org/2000/svg" viewBox="0 0 64 48" width="64" height="48">
					<path id="Eyeglasses" class="shp0" d="M1.91 34.69C1.86 34.69 1.81 34.69 1.77 34.69C0.66 34.61 -0.17 33.65 -0.09 32.55C-0.03 31.68 3.03 12.72 3.54 9.66C3.59 9.37 3.62 9.06 3.67 8.73C4.06 5.65 4.79 -0.06 14.01 -0.06C15.12 -0.06 16.01 0.83 16.01 1.94C16.01 3.04 15.12 3.94 14.01 3.94C8.31 3.94 8.01 6.28 7.63 9.24C7.59 9.62 7.54 9.98 7.48 10.32C7.09 12.7 4.32 26.99 3.9 32.83C3.83 33.89 2.95 34.69 1.91 34.69ZM62.09 34.82C61.05 34.82 59.97 34.01 59.9 32.96C59.48 27.12 56.71 12.7 56.32 10.32C56.26 9.98 56.21 9.62 56.17 9.24C55.79 6.28 55.49 3.94 49.79 3.94C48.69 3.94 47.79 3.04 47.79 1.94C47.79 0.83 48.69 -0.06 49.79 -0.06C59.01 -0.06 59.74 5.65 60.13 8.73C60.18 9.06 60.21 9.37 60.26 9.66C60.77 12.72 64.03 31.81 64.09 32.67C64.17 33.78 63.34 34.73 62.23 34.81C62.19 34.82 62.14 34.82 62.09 34.82ZM14.08 24.02C19.58 24.02 24.04 28.48 24.04 33.98C24.04 39.47 19.58 43.94 14.08 43.94C8.57 43.94 3.92 39.38 3.92 33.98C3.92 28.58 8.57 24.02 14.08 24.02M14.08 20.02C6.37 20.02 -0.08 26.27 -0.08 33.98C-0.08 41.69 6.37 47.94 14.08 47.94C21.79 47.94 28.04 41.69 28.04 33.98C28.04 26.27 21.79 20.02 14.08 20.02L14.08 20.02ZM50.08 24.02C55.57 24.02 60.04 28.48 60.04 33.98C60.04 39.47 55.57 43.94 50.08 43.94C44.57 43.94 39.91 39.38 39.91 33.98C39.91 28.58 44.57 24.02 50.08 24.02M50.08 20.02C42.37 20.02 35.91 26.27 35.91 33.98C35.91 41.69 42.37 47.94 50.08 47.94C57.79 47.94 64.04 41.69 64.04 33.98C64.04 26.27 57.79 20.02 50.08 20.02L50.08 20.02ZM26.87 30.96L24.69 27.6C24.97 27.42 27.51 25.83 31.98 25.83C36.25 25.83 38.86 27.23 39.15 27.39L37.18 30.88C37.18 30.88 35.21 29.83 31.98 29.83C28.71 29.83 26.89 30.94 26.87 30.96Z" />
</svg>
