<svg xmlns="http://www.w3.org/2000/svg" xmlns:xlink="http://www.w3.org/1999/xlink" width="20px" height="10px" viewPort="0 0 20 10">
    <path fill-rule="evenodd"  fill="rgb(255, 255, 255)" d="M19.863,4.661 L19.863,4.661 L15.319,0.134 C15.155,-0.056 14.868,-0.078 14.678,0.085 C14.487,0.247 14.465,0.533 14.628,0.723 C14.644,0.741 14.660,0.757 14.678,0.772 L18.445,4.530 L0.454,4.530 C0.203,4.530 -0.000,4.732 -0.000,4.983 C-0.000,5.233 0.203,5.435 0.454,5.435 L18.445,5.435 L14.678,9.188 C14.487,9.351 14.465,9.637 14.628,9.827 C14.792,10.016 15.078,10.039 15.269,9.876 C15.287,9.861 15.303,9.844 15.319,9.827 L19.863,5.300 C20.039,5.123 20.039,4.837 19.863,4.661 Z"/>
</svg>
