<?xml version="1.0" encoding="iso-8859-1"?>
<!-- Generator: Adobe Illustrator 19.0.0, SVG Export Plug-In . SVG Version: 6.00 Build 0)  -->
<svg version="1.1" id="Layer_1" xmlns="http://www.w3.org/2000/svg" xmlns:xlink="http://www.w3.org/1999/xlink" x="0px" y="0px"
	 viewBox="0 0 464.008 464.008" style="enable-background:new 0 0 464.008 464.008;" xml:space="preserve">
<path style="fill:#E67F33;" d="M316.98,152.68L316.98,152.68L316.98,152.68c-9.688,1.128-18.936,3.664-27.528,7.44
	C265.716,119.696,232.82,80,232.004,80c-0.728,0-26.968,31.568-49.48,67.072C164.668,135.032,143.156,128,120.004,128v64
	c0,59.04,45.72,107.304,103.672,111.576c2.736,0.28,5.512,0.424,8.328,0.424c2.816,0,5.592-0.144,8.328-0.424
	c49.112-4.224,87.672-45.368,87.672-95.576v-50.384V152C324.268,152,320.596,152.256,316.98,152.68z"/>
<path style="fill:#FCB641;" d="M264.004,184.448c-2.2,0-4.384-0.896-5.968-2.664c-2.944-3.296-2.664-8.352,0.624-11.296
	C277.748,153.408,302.372,144,328.004,144c4.416,0,8,3.584,8,8s-3.584,8-8,8c-21.688,0-42.52,7.96-58.664,22.408
	C267.812,183.776,265.908,184.448,264.004,184.448z"/>
<g>
	<path style="fill:#FCB641;" d="M232.004,248c-4.416,0-8-3.584-8-8c0-57.344-46.656-104-104-104c-4.416,0-8-3.584-8-8s3.584-8,8-8
		c66.168,0,120,53.832,120,120C240.004,244.416,236.42,248,232.004,248z"/>
	<path style="fill:#FCB641;" d="M304.004,40h-16V16c0-8.84,7.16-16,16-16h16v24C320.004,32.84,312.844,40,304.004,40z"/>
</g>
<g>
	<path style="fill:#EB995C;" d="M387.316,226.144l-11.312-11.312l16.968-16.968c6.248-6.248,16.376-6.248,22.624,0l11.312,11.312
		l-16.968,16.968C403.7,232.392,393.564,232.392,387.316,226.144z"/>
	<path style="fill:#EB995C;" d="M76.692,226.144l11.312-11.312l-16.968-16.968c-6.248-6.248-16.376-6.248-22.624,0L37.1,209.176
		l16.968,16.968C60.308,232.392,70.444,232.392,76.692,226.144z"/>
</g>
<path style="fill:#FDC567;" d="M152.004,80h16V56c0-8.84-7.16-16-16-16h-16v24C136.004,72.84,143.164,80,152.004,80z"/>
<path style="fill:#AD5F26;" d="M359.972,464.008c-6.64,0-13.376-1.656-19.576-5.144l-108.392-60.968l-108.392,60.968
	c-19.256,10.832-43.648,4-54.472-15.256c-10.832-19.256-4-43.64,15.256-54.472l128-48c12.168-6.848,27.048-6.848,39.216,0l128,48
	c19.256,10.832,26.088,35.216,15.256,54.472C387.524,456.664,373.948,464.008,359.972,464.008z"/>
<g>
	<circle style="fill:#BD7F51;" cx="104.004" cy="424" r="40"/>
	<circle style="fill:#BD7F51;" cx="360.004" cy="424" r="40"/>
</g>
<g>
</g>
<g>
</g>
<g>
</g>
<g>
</g>
<g>
</g>
<g>
</g>
<g>
</g>
<g>
</g>
<g>
</g>
<g>
</g>
<g>
</g>
<g>
</g>
<g>
</g>
<g>
</g>
<g>
</g>
</svg>
