<svg  xmlns="http://www.w3.org/2000/svg" width="64" height="65"><g id="about"><g id="iconboxes"><g id="iconbox"><g id="icon"><path  d="M32 64.19c-13.24 0-24.38-9.9-25.92-23.03-.13-1.1.65-2.09 1.75-2.22 1.09-.14 2.09.65 2.22 1.75 1.3 11.12 10.74 19.5 21.95 19.5 11.19 0 20.63-8.37 21.95-19.46.13-1.1 1.12-1.89 2.22-1.75 1.1.13 1.89 1.12 1.75 2.22C56.36 54.31 45.22 64.19 32 64.19zm0-.51c-1.11 0-2-.89-2-2V16.56c0-1.11.89-2 2-2a2 2 0 012 2v45.12a2 2 0 01-2 2zm.03-59.74c2.24 0 4.06 1.82 4.06 4.06 0 2.24-1.82 4.06-4.06 4.06-2.24 0-4.06-1.82-4.06-4.06 0-2.24 1.82-4.06 4.06-4.06m0-4c-4.45 0-8.06 3.61-8.06 8.06 0 4.45 3.61 8.06 8.06 8.06 4.45 0 8.06-3.61 8.06-8.06 0-4.45-3.61-8.06-8.06-8.06zM56.4 39.16l-7.91 5.38c-.68.43-1.6.41-2.01-.29l-.41-.45c-.4-.7-.18-1.62.5-2.06l9.1-6.14.03-.03.62-.4c.34-.22.73-.27 1.08-.18.36.08.69.31.89.66l.37.63c.01.02 0 .03.01.04l5.14 9.46c.41.7.19 1.61-.49 2.05l-.57.22c-.68.43-1.52.04-1.93-.66l-4.42-8.23zm-48.8 0l7.91 5.38c.68.43 1.6.41 2.01-.29l.41-.45c.4-.7.18-1.62-.5-2.06l-9.1-6.14-.03-.03-.62-.4c-.34-.22-.73-.27-1.08-.18-.36.08-.69.31-.89.66l-.37.63c-.01.02 0 .03-.01.04L.19 45.78c-.41.7-.19 1.61.49 2.05l.57.22c.68.43 1.52.04 1.93-.66l4.42-8.23zM22 16h20a2 2 0 110 4H22a2 2 0 110-4z"  fill="#1b1b1b"/></svg>
