<svg xmlns="http://www.w3.org/2000/svg" width="65" height="64">
<path  d="M51.75 3.98l8.31 15.9-28.12 38.29L4.27 19.59l8.3-15.61h39.18m.42-4h-40c-1.1 0-2.43.79-2.94 1.77L.51 18.14c-.52.97-.42 2.49.22 3.39l30.01 41.82c.32.45.75.68 1.17.68.43 0 .85-.22 1.18-.67l30.49-41.51c.65-.89.77-2.41.26-3.38L55.09 1.75c-.51-.97-1.82-1.77-2.92-1.77zm8.25 22h-58v-4h58v4zm-30.4 37.63L11.27 3.11l3.79-1.26 18.75 56.5-3.79 1.26zm3.94-.43l-3.78-1.32L50.28.32l3.78 1.32-20.1 57.54zM21.14 21.12l-3.28-2.29 12.53-18c.37-.52.96-.84 1.59-.86.61.01 1.24.27 1.63.78l13.47 17.33-3.16 2.46-11.8-15.19-10.98 15.77z" fill="#1b1b1b"/></svg>
