<svg  xmlns="http://www.w3.org/2000/svg" width="64" height="48">
<path d="M1.91 34.69h-.14a2.004 2.004 0 01-1.86-2.14c.06-.87 3.12-19.83 3.63-22.89.05-.29.08-.6.13-.93.39-3.08 1.12-8.79 10.34-8.79 1.11 0 2 .89 2 2a2 2 0 01-2 2c-5.7 0-6 2.34-6.38 5.3-.04.38-.09.74-.15 1.08-.39 2.38-3.16 16.67-3.58 22.51a1.99 1.99 0 01-1.99 1.86zm60.18.13c-1.04 0-2.12-.81-2.19-1.86-.42-5.84-3.19-20.26-3.58-22.64-.06-.34-.11-.7-.15-1.08-.38-2.96-.68-5.3-6.38-5.3a2 2 0 110-4c9.22 0 9.95 5.71 10.34 8.79.05.33.08.64.13.93.51 3.06 3.77 22.15 3.83 23.01.08 1.11-.75 2.06-1.86 2.14-.04.01-.09.01-.14.01zm-48.01-10.8c5.5 0 9.96 4.46 9.96 9.96 0 5.49-4.46 9.96-9.96 9.96-5.51 0-10.16-4.56-10.16-9.96 0-5.4 4.65-9.96 10.16-9.96m0-4c-7.71 0-14.16 6.25-14.16 13.96 0 7.71 6.45 13.96 14.16 13.96s13.96-6.25 13.96-13.96c0-7.71-6.25-13.96-13.96-13.96zm36 4c5.49 0 9.96 4.46 9.96 9.96 0 5.49-4.47 9.96-9.96 9.96-5.51 0-10.17-4.56-10.17-9.96 0-5.4 4.66-9.96 10.17-9.96m0-4c-7.71 0-14.17 6.25-14.17 13.96 0 7.71 6.46 13.96 14.17 13.96s13.96-6.25 13.96-13.96c0-7.71-6.25-13.96-13.96-13.96zM26.87 30.96l-2.18-3.36c.28-.18 2.82-1.77 7.29-1.77 4.27 0 6.88 1.4 7.17 1.56l-1.97 3.49s-1.97-1.05-5.2-1.05c-3.27 0-5.09 1.11-5.11 1.13z" 
fill="#1b1b1b"/></svg>
